<svg xmlns="http://www.w3.org/2000/svg" viewBox="0 0 86.14 86.13">
    <defs>
        <style>
            .a{fill:#fff;}
            .circle{fill:#005597;}
            @media (prefers-color-scheme: dark) {
                .a {fill: #005597;}
                .circle{fill:#fff;}
            }
        </style>
    </defs>
    <g id="Layer_1" data-name="Layer 1">
        <path class="circle" d="M23.49,81.42a43.06,43.06,0,0,0,40.85-.91l-31-31Z"/>
        <path class="circle" d="M86.14,43.07A43.09,43.09,0,0,0,57.6,2.52l22.24,63A42.88,42.88,0,0,0,86.14,43.07Z"/>
        <path class="circle" d="M0,43.07A42.84,42.84,0,0,0,9,69.4L33.4,1.1A43.07,43.07,0,0,0,0,43.07Z"/>
        <polygon class="circle" points="33.14 48.92 55.15 48.92 44.31 15.08 33.14 48.92"/>
        <!-- <path class="a" d="M79.84,65.49,57.6,2.52A42.91,42.91,0,0,0,43.07,0,43.36,43.36,0,0,0,33.4,1.1L9,69.4a43.24,43.24,0,0,0,14.49,12l9.86-31.89,31,31A43.24,43.24,0,0,0,79.84,65.49ZM33.14,48.92,44.31,15.08,55.15,48.92Z"/> -->
    </g>
</svg>