<svg xmlns="http://www.w3.org/2000/svg" viewBox="0 0 80.14 22.88"><defs><style>.cls-1{fill:#706f6f;}.cls-2{fill:#fff;fill-rule:evenodd;}</style></defs><g id="Layer_2" data-name="Layer 2"><rect class="cls-1" x="-42.57" y="-62.58" width="595.28" height="841.89"/></g><g id="Layer_1" data-name="Layer 1"><path class="cls-2" d="M51,15.39a16.08,16.08,0,0,0-.08-2.88,6.89,6.89,0,0,0-1.22-3.09,5.57,5.57,0,0,0-2.52-2.16,8.06,8.06,0,0,0-3.53-.72,7.1,7.1,0,0,0-5.25,2.08c-1.37,1.37-2,3.32-2,5.91s.72,4.68,2.23,5.9a8,8,0,0,0,5,1.8h.22a7.1,7.1,0,0,0,5.54-2.16,4.62,4.62,0,0,0,1.44-2.66h-4A3.09,3.09,0,0,1,46,18.49a3.19,3.19,0,0,1-2.09.65h-.29a3.39,3.39,0,0,1-1.87-.58,3.66,3.66,0,0,1-1.51-3.17H51Zm-9.65-4.82a3.25,3.25,0,0,1,2.3-.79,3.55,3.55,0,0,1,2.31.79,2.86,2.86,0,0,1,1,2.23H40.32A3.76,3.76,0,0,1,41.33,10.57Z"/><polygon class="cls-2" points="50.83 21.8 55.94 14.24 51.05 6.9 55.73 6.9 58.25 11.22 60.7 6.9 65.45 6.9 60.55 14.17 65.59 21.8 60.77 21.8 58.18 17.26 55.58 21.8 50.83 21.8"/><path class="cls-2" d="M79.63,20.72a2.08,2.08,0,0,1-.29-1V11.15a3.78,3.78,0,0,0-1.87-3.68,10.72,10.72,0,0,0-4.39-.93h-.29c-2.37.07-4,.72-5,1.94a5.53,5.53,0,0,0-1.08,3.17h3.75A2.6,2.6,0,0,1,71,10.28a2.2,2.2,0,0,1,1.8-.65h.15a3.45,3.45,0,0,1,1.87.36,1.32,1.32,0,0,1-.22,2.38,5.08,5.08,0,0,1-1.51.29l-.29.07-1.08.14a8.8,8.8,0,0,0-3.38.94,4.2,4.2,0,0,0-2.16,4,4,4,0,0,0,1.37,3.31,4.64,4.64,0,0,0,3.31,1.15,5.67,5.67,0,0,0,1.94-.29c.29-.14.65-.28.94-.43a11.52,11.52,0,0,0,1.87-1.44,3.65,3.65,0,0,0,.07.87,5.12,5.12,0,0,0,.29.86h4.18v-.57C79.92,21.08,79.7,20.94,79.63,20.72ZM75.46,16a3.36,3.36,0,0,1-1.08,2.73,4.86,4.86,0,0,1-1.59.65,3,3,0,0,1-.79.07A2.22,2.22,0,0,1,70.63,19a1.76,1.76,0,0,1-.5-1.44A1.9,1.9,0,0,1,71,15.82a9,9,0,0,1,1.8-.5l.86-.14a6.67,6.67,0,0,0,1-.29,4,4,0,0,0,.8-.36Z"/><polygon class="cls-2" points="8.93 12.87 11.88 12.87 14.83 12.87 11.95 3.8 11.88 3.87 8.93 12.87"/><path class="cls-2" d="M9,0A11.58,11.58,0,0,0,2.45,18.41Z"/><path class="cls-2" d="M11.88,16,9,13l-2.66,8.6a11.55,11.55,0,0,0,11-.27Z"/><path class="cls-2" d="M33.77,8.7a5.34,5.34,0,0,0-4.54-2.16c-.43,0-.79.07-1.15.07a5.78,5.78,0,0,0-1.58.65,6.23,6.23,0,0,0-1.59,1.51V1.71H21V4.56A11.55,11.55,0,0,0,15.47.37L23.09,21.8h1.75V19.93a5.85,5.85,0,0,0,1.44,1.51,3.57,3.57,0,0,0,1.8.65,6,6,0,0,0,1.15.07,5.44,5.44,0,0,0,4.61-2.23,9.88,9.88,0,0,0,1.58-5.76A8.27,8.27,0,0,0,33.77,8.7Zm-3.24,9.07a2.72,2.72,0,0,1-2.31,1.15h-.14a2.86,2.86,0,0,1-2.45-1.22,5.54,5.54,0,0,1-.79-3.17,6.91,6.91,0,0,1,.36-2.66,2.87,2.87,0,0,1,2.88-1.95,2.77,2.77,0,0,1,2.81,2,6.44,6.44,0,0,1,.43,2.59A6.42,6.42,0,0,1,30.53,17.77Z"/></g></svg>